<svg xmlns="http://www.w3.org/2000/svg">
<path d="M576.95044,378.17807 L577.3073,378.17807 M577.3073,378.17807 L578.8952,378.97205 M578.8952,378.97205 L580.99585,379.80457 M580.99585,379.80457 L583.609,381.5467 M583.609,381.5467 L587.0725,384.4975 M587.0725,384.4975 L592.5966,389.5089 M592.5966,389.5089 L596.6984,393.61063 M596.6984,393.61063 L601.66064,398.57288 M601.66064,398.57288 L605.917,402.8679 M605.917,402.8679 L611.07263,409.16495 M611.07263,409.16495 L616.973,415.65533 M616.973,415.65533 L624.8046,424.77435 M624.8046,424.77435 L629.29297,430.3655 M629.29297,430.3655 L636.24805,438.57813 M636.24805,438.57813 L644.2579,447.92285 M644.2579,447.92285 L651.80273,455.4678 M651.80273,455.4678 L659.58014,463.91263 M659.58014,463.91263 L667.5899,473.25742 M667.5899,473.25742 L675.35864,485.26373 M675.35864,485.26373 L683.1275,497.97632 M683.1275,497.97632 L695.24255,521.50024 M695.24255,521.50024 L701.94806,537.1465 M701.94806,537.1465 L704.77313,544.20905 M704.77313,544.20905 L713.68585,568.71924 M713.68585,568.71924 L717.40985,585.1035 M717.40985,585.1035 L721.13513,601.4948 M721.13513,601.4948 L721.13513,616.753 M721.13513,616.753 L721.13513,630.8781 M721.13513,630.8781 L721.13513,643.948 M721.13513,643.948 L719.7614,657.0179 M719.7614,657.0179 L718.2713,673.4092 M718.2713,673.4092 L715.2206,690.97217 M715.2206,690.97217 L710.5257,709.7518 M710.5257,709.7518 L704.56525,726.14307 M704.56525,726.14307 L697.9507,741.6073 M697.9507,741.6073 L690.69415,755.4142 M690.69415,755.4142 L677.70996,774.8322 M677.70996,774.8322 L672.49457,781.5378 M672.49457,781.5378 L653.01215,801.8168 M653.01215,801.8168 L637.33435,812.79126 M637.33435,812.79126 L618.4108,823.4872 M618.4108,823.4872 L597.8418,831.7147 M597.8418,831.7147 L576.45,838.2968 M576.45,838.2968 L558.69147,843.00037 M558.69147,843.00037 L531.55273,843.00037 M531.55273,843.00037 L499.41312,843.00037 M499.41312,843.00037 L480.3204,843.00037 M480.3204,843.00037 L446.7352,839.83044 M446.7352,839.83044 L422.6087,835.52216 M422.6087,835.52216 L397.4216,828.04254 M397.4216,828.04254 L372.39465,816.9195 M372.39465,816.9195 L349.70322,803.8933 M349.70322,803.8933 L325.38876,786.62933 M325.38876,786.62933 L307.7578,772.05664 M307.7578,772.05664 L270.6526,731.9378 M270.6526,731.9378 L259.45917,716.674 M259.45917,716.674 L231.1944,674.8919 M231.1944,674.8919 L215.84947,647.05975 M215.84947,647.05975 L201.36702,611.75415 M201.36702,611.75415 L192.82574,590.0899 M192.82574,590.0899 L182.84505,555.138 M182.84505,555.138 L173.3963,515.0171 M173.3963,515.0171 L165.60872,469.2701 M165.60872,469.2701 L165.60872,423.52313 M165.60872,423.52313 L165.60872,379.6935 M165.60872,379.6935 L166.62419,343.09863 M166.62419,343.09863 L172.6126,308.14667 M172.6126,308.14667 L180.28505,276.47824 M180.28505,276.47824 L196.14172,232.50504 M196.14172,232.50504 L201.31166,221.30339 M201.31166,221.30339 L223.12317,189.89801 M223.12317,189.89801 L236.36823,175.08511 M236.36823,175.08511 L255.32481,159.57523 M255.32481,159.57523 L272.62106,147.27495 M272.62106,147.27495 L300.9991,128.68237 M300.9991,128.68237 L333.5619,110.36589 M333.5619,110.36589 L366.04022,94.63544 M366.04022,94.63544 L400.63806,81.40691 M400.63806,81.40691 L429.76437,72.011314 M429.76437,72.011314 L452.30612,70.288 M452.30612,70.288 L480.0294,70.288 M480.0294,70.288 L500.132,71.89467 M500.132,71.89467 L520.2346,75.10791 M520.2346,75.10791 L540.3373,79.92791 M540.3373,79.92791 L560.9063,87.33275 M560.9063,87.33275 L577.6095,94.11646 M577.6095,94.11646 L614.96564,114.20398 M614.96564,114.20398 L623.96936,119.933655 M623.96936,119.933655 L633.0198,126.51571 M633.0198,126.51571 L649.90906,137.76228 M649.90906,137.76228 L664.25635,149.71838 M664.25635,149.71838 L675.4734,159.53326 M675.4734,159.53326 L686.1062,170.1661 M686.1062,170.1661 L697.01044,181.7766 M697.01044,181.7766 L708.76886,196.67062 M708.76886,196.67062 L720.7993,213.55989 M720.7993,213.55989 L731.49524,233.30612 M731.49524,233.30612 L742.9046,257.0681 M742.9046,257.0681 L753.9455,283.7698 M753.9455,283.7698 z" fill="none" stroke="black" stroke-width="1"/>
<path d="M576.95044,378.17807 L567.5889,397.6148 M567.5889,397.6148 L574.1817,390.0256 M574.1817,390.0256 L583.597,388.32855 M583.597,388.32855 L592.81104,397.49802 M592.81104,397.49802 L602.249,405.871 M602.249,405.871 L614.53815,417.74646 M614.53815,417.74646 L626.5573,432.68225 M626.5573,432.68225 L641.7012,450.47955 M641.7012,450.47955 L657.20013,465.9526 M657.20013,465.9526 L673.14905,486.61407 M673.14905,486.61407 L693.1594,522.39307 M693.1594,522.39307 L703.3829,544.71454 M703.3829,544.71454 L715.17175,585.6122 M715.17175,585.6122 L718.4038,616.753 M718.4038,616.753 L718.2155,643.6411 M718.2155,643.6411 L716.1389,673.0388 M716.1389,673.0388 L708.44684,708.99585 M708.44684,708.99585 L695.76117,740.45654 M695.76117,740.45654 L674.12506,772.044 M674.12506,772.044 L651.8561,800.1652 M651.8561,800.1652 L617.76404,821.87024 M617.76404,821.87024 L575.9123,836.2667 M575.9123,836.2667 L531.55273,841.8 M531.55273,841.8 L480.42786,841.8618 M480.42786,841.8618 L423.0267,834.11456 M423.0267,834.11456 L373.12875,815.6407 M373.12875,815.6407 L326.46332,785.3293 M326.46332,785.3293 L272.29623,730.7324 M272.29623,730.7324 L232.25745,674.30585 M232.25745,674.30585 L202.90828,611.1465 M202.90828,611.1465 L183.75613,554.9234 M183.75613,554.9234 L166.45207,469.2701 M166.45207,469.2701 L166.66217,379.72275 M166.66217,379.72275 L173.76329,308.42545 M173.76329,308.42545 L198.98108,233.81549 M198.98108,233.81549 L224.57051,191.19214 M224.57051,191.19214 L256.37827,161.05661 M256.37827,161.05661 L301.50537,129.58238 M301.50537,129.58238 L366.41217,95.60831 M366.41217,95.60831 L429.89447,73.712875 M429.89447,73.712875 L479.87698,72.19497 M479.87698,72.19497 L519.79944,76.92274 M519.79944,76.92274 L560.1011,89.31546 M560.1011,89.31546 L613.02484,117.25383 M613.02484,117.25383 L631.96594,128.09825 M631.96594,128.09825 L662.5519,151.66638 M662.5519,151.66638 L684.34064,171.82426 M684.34064,171.82426 L707.2535,197.75005 M707.2535,197.75005 L753.9455,283.7698 M753.9455,283.7698 z" fill="none" stroke="black" stroke-width="1"/>
</svg>