<svg viewBox="0 0 1000 1000" xmlns="http://www.w3.org/2000/svg">
<path d="M908.53644,370.48016 L905.9355,370.91522 M905.9355,370.91522 L904.78296,370.91522 M904.78296,370.91522 L902.1698,370.0442 M902.1698,370.0442 L897.0425,369.01874 M897.0425,369.01874 L888.7044,368.46738 M888.7044,368.46738 L881.8078,367.37204 M881.8078,367.37204 L870.84875,367.37204 M870.84875,367.37204 L859.8116,366.7433 M859.8116,366.7433 L849.78436,366.1187 M849.78436,366.1187 L839.72437,365.48996 M839.72437,365.48996 L826.57166,363.6984 M826.57166,363.6984 L822.4413,363.1083 M822.4413,363.1083 L818.31104,362.5183 M818.31104,362.5183 L807.40643,362.5183 M807.40643,362.5183 L800.7126,362.5183 M800.7126,362.5183 L789.67523,362.5183 M789.67523,362.5183 L778.63806,362.5183 M778.63806,362.5183 L768.57806,363.77582 M768.57806,363.77582 L760.3409,364.9525 M760.3409,364.9525 L751.0253,366.17136 M751.0253,366.17136 L743.43176,367.94153 M743.43176,367.94153 L736.0545,369.6139 M736.0545,369.6139 L728.61597,370.75525 M728.61597,370.75525 L719.657,371.9356 M719.657,371.9356 L712.96313,373.0383 M712.96313,373.0383 L703.0567,374.27664 M703.0567,374.27664 L692.0193,374.94406 M692.0193,374.94406 L674.97473,376.2403 M674.97473,376.2403 L669.94476,376.2403 M669.94476,376.2403 L654.9184,378.11856 M654.9184,378.11856 L644.945,379.3652 M644.945,379.3652 L634.88513,380.62262 M634.88513,380.62262 L624.879,382.50208 M624.879,382.50208 L615.71875,384.3109 M615.71875,384.3109 L605.5812,388.1609 M605.5812,388.1609 L595.0619,392.55447 M595.0619,392.55447 L587.68317,395.40735 M587.68317,395.40735 L575.6699,400.74658 M575.6699,400.74658 L562.6001,405.57404 M562.6001,405.57404 L550.58545,410.24637 M550.58545,410.24637 L537.63324,414.32867 M537.63324,414.32867 L526.596,417.5499 M526.596,417.5499 L513.52606,418.25613 M513.52606,418.25613 L496.4815,418.25613 M496.4815,418.25613 L489.41888,418.25613 M489.41888,418.25613 L470.34167,418.25613 M470.34167,418.25613 L455.08347,417.5499 M455.08347,417.5499 L439.82526,416.8436 M439.82526,416.8436 L424.7172,416.13736 M424.7172,416.13736 L409.459,414.68607 M409.459,414.68607 L394.2008,411.0772 M394.2008,411.0772 L380.23462,406.19702 M380.23462,406.19702 L369.55457,399.4445 M369.55457,399.4445 L362.87164,392.0945 M362.87164,392.0945 L359.7279,383.57034 M359.7279,383.57034 L359.7279,375.30975 M359.7279,375.30975 L359.7279,367.53745 M359.7279,367.53745 L362.8542,357.971 M362.8542,357.971 L368.66022,346.04 M368.66022,346.04 L378.19485,332.11652 M378.19485,332.11652 L393.3546,314.41064 M393.3546,314.41064 L416.8151,289.38293 M416.8151,289.38293 L440.34338,269.61288 M440.34338,269.61288 L463.3427,251.22977 M463.3427,251.22977 L487.24713,233.741 M487.24713,233.741 L509.2948,218.74237 M509.2948,218.74237 L527.691,208.33409 M527.691,208.33409 L547.35724,200.10732 M547.35724,200.10732 L561.4824,199.4011 M561.4824,199.4011 L579.0848,199.4011 M579.0848,199.4011 L599.1874,201.00768 M599.1874,201.00768 L623.3139,204.4543 M623.3139,204.4543 L642.4397,209.31346 M642.4397,209.31346 L670.98157,218.51416 M670.98157,218.51416 L705.89404,232.91745 M705.89404,232.91745 L724.48236,242.64247 M724.48236,242.64247 L747.70306,257.81775 M747.70306,257.81775 L777.78845,285.07648 M777.78845,285.07648 L786.4051,294.55472 M786.4051,294.55472 L795.0217,304.033 M795.0217,304.033 L816.2759,332.37195 M816.2759,332.37195 L830.03827,358.03232 M830.03827,358.03232 L840.12384,379.3696 M840.12384,379.3696 L852.8451,410.68335 M852.8451,410.68335 L862.2406,440.74927 M862.2406,440.74927 L862.2406,470.81516 M862.2406,470.81516 L861.301,500.881 M861.301,500.881 L855.6673,532.22314 M855.6673,532.22314 L845.6475,566.15753 M845.6475,566.15753 L831.4014,600.7554 M831.4014,600.7554 L816.72296,632.06915 M816.72296,632.06915 L800.8403,658.2199 M800.8403,658.2199 L777.4236,686.3218 M777.4236,686.3218 L761.6726,700.9777 M761.6726,700.9777 L721.6263,726.6577 M721.6263,726.6577 L697.45593,735.8655 M697.45593,735.8655 L652.6272,741.8985 M652.6272,741.8985 L612.4747,741.8985 M612.4747,741.8985 L572.3221,737.67194 M572.3221,737.67194 z" fill="none" stroke="black" stroke-width="1"/>
<path d="M908.53644,370.48016 L905.9355,337.4413 M905.9355,337.4413 L903.6168,362.80914 M903.6168,362.80914 L889.57104,363.01093 M889.57104,363.01093 L871.04724,363.88788 M871.04724,363.88788 L850.0231,362.29858 M850.0231,362.29858 L827.8794,354.54465 M827.8794,354.54465 L818.31104,358.98035 M818.31104,358.98035 L800.7126,359.0229 M800.7126,359.0229 L778.166,358.74228 M778.166,358.74228 L759.80817,360.88074 M759.80817,360.88074 L742.3042,362.96753 M742.3042,362.96753 L728.05835,366.52243 M728.05835,366.52243 L712.48376,369.20377 M712.48376,369.20377 L691.84814,372.69357 M691.84814,372.69357 L669.6288,373.71228 M669.6288,373.71228 L644.473,375.58914 M644.473,375.58914 L624.07855,378.44846 M624.07855,378.44846 L604.27686,385.03806 M604.27686,385.03806 L586.49133,392.72562 M586.49133,392.72562 L561.5154,402.78476 M561.5154,402.78476 L536.6932,411.1076 M536.6932,411.1076 L513.52606,415.99265 M513.52606,415.99265 L489.41888,416.2338 M489.41888,416.2338 L455.20026,415.0268 M455.20026,415.0268 L424.95554,413.63153 M424.95554,413.63153 L395.06104,408.6154 M395.06104,408.6154 L372.42804,396.83182 M372.42804,396.83182 L364.3983,383.57034 M364.3983,383.57034 L363.37164,368.7282 M363.37164,368.7282 L370.54654,347.33173 M370.54654,347.33173 L394.17514,315.1798 M394.17514,315.1798 L441.1615,270.63644 M441.1615,270.63644 L488.0609,234.93724 M488.0609,234.93724 L528.3894,210.00368 M528.3894,210.00368 L561.4824,201.59285 M561.4824,201.59285 L598.9635,202.57477 M598.9635,202.57477 L642.045,210.53793 M642.045,210.53793 L705.0415,234.54694 M705.0415,234.54694 L747.06494,258.522 M747.06494,258.522 L784.1765,296.58072 M784.1765,296.58072 L815.1082,332.99817 M815.1082,332.99817 L839.0663,379.79922 M839.0663,379.79922 L860.9574,440.74927 M860.9574,440.74927 L860.1086,500.6667 M860.1086,500.6667 L844.6941,565.76495 M844.6941,565.76495 L815.6452,631.41455 M815.6452,631.41455 L776.2021,685.009 M776.2021,685.009 L721.0953,725.26385 M721.0953,725.26385 L572.3221,737.67194 M572.3221,737.67194 z" fill="none" stroke="black" stroke-width="1"/>
</svg>